<?xml version="1.0" standalone="no"?>
<!DOCTYPE svg PUBLIC "-//W3C//DTD SVG 20010904//EN"
 "http://www.w3.org/TR/2001/REC-SVG-20010904/DTD/svg10.dtd">
<svg version="1.0" xmlns="http://www.w3.org/2000/svg"
 width="705.000000pt" height="650.000000pt" viewBox="0 0 705.000000 650.000000"
 preserveAspectRatio="xMidYMid meet">

<g transform="translate(0.000000,650.000000) scale(0.100000,-0.100000)"
fill="#000000" stroke="none">
<path d="M0 3251 l0 -3248 3525 -1 3525 0 0 3249 0 3249 -3525 0 -3525 0 0
-3249z m3735 2705 c28 -3 50 -6 50 -7 0 -2 29 -7 85 -13 25 -2 45 -5 45 -6 0
-1 8 -3 17 -5 9 -2 33 -8 52 -15 20 -6 40 -9 46 -5 5 3 10 1 10 -4 0 -6 3 -10
8 -9 4 1 24 -4 44 -11 21 -7 43 -9 50 -5 7 4 9 3 5 -1 -10 -11 81 -48 95 -39
7 5 8 2 3 -6 -6 -10 -4 -12 8 -7 10 3 17 2 17 -4 0 -6 5 -7 10 -4 6 3 10 3 10
-2 0 -12 51 -33 63 -26 6 3 7 1 3 -5 -3 -6 4 -14 16 -18 12 -4 67 -33 121 -65
54 -33 103 -59 107 -59 5 0 10 -4 12 -8 2 -5 30 -28 63 -53 33 -24 64 -50 68
-57 5 -7 13 -9 19 -6 6 4 8 3 5 -3 -6 -10 36 -53 52 -53 5 0 12 -7 15 -16 3
-9 11 -12 18 -8 7 4 6 0 -2 -8 -8 -9 -79 -32 -157 -53 l-142 -38 -118 80
c-134 90 -180 116 -197 106 -6 -3 -8 -2 -3 2 10 12 -124 69 -243 105 -251 74
-534 83 -817 24 -18 -3 -33 -9 -33 -13 0 -3 -14 -7 -32 -8 -59 -4 -269 -92
-383 -161 -86 -51 -215 -148 -208 -156 4 -3 0 -6 -7 -6 -33 0 -223 -209 -305
-335 -137 -211 -226 -467 -251 -720 -7 -72 -6 -274 2 -338 4 -34 7 -65 6 -69
-1 -5 2 -8 6 -8 5 0 6 -14 4 -31 -3 -22 -1 -30 7 -25 7 4 9 2 5 -8 -6 -15 21
-114 62 -231 30 -84 139 -294 169 -327 12 -13 23 -27 26 -33 2 -5 7 -9 12 -7
4 1 6 -4 5 -10 -2 -7 2 -12 9 -11 7 2 10 -3 7 -10 -6 -17 65 -99 78 -91 7 4 8
2 4 -4 -8 -14 53 -84 67 -75 5 3 7 1 4 -4 -4 -6 20 -34 53 -63 33 -29 60 -50
60 -47 0 3 17 -11 37 -29 22 -21 44 -32 52 -29 9 3 12 3 8 -1 -9 -9 13 -35 24
-28 5 3 9 0 9 -6 0 -6 5 -8 10 -5 6 3 10 2 10 -4 0 -10 96 -66 103 -60 2 2 11
-4 21 -14 10 -9 22 -15 27 -12 5 4 9 2 9 -2 0 -7 99 -55 120 -59 3 0 13 -4 22
-8 9 -4 22 -8 30 -10 7 -1 19 -5 26 -9 6 -5 16 -6 21 -3 5 4 11 2 13 -3 1 -5
19 -12 38 -15 47 -9 53 -11 65 -18 6 -3 35 -9 65 -13 30 -4 69 -10 85 -13 47
-9 408 -8 430 2 11 5 30 8 43 7 12 -1 22 2 22 6 0 5 10 9 23 10 54 1 68 4 63
11 -3 5 3 8 12 8 54 0 73 5 66 16 -4 7 -3 8 5 4 13 -8 82 14 75 25 -2 4 6 5
18 1 13 -3 19 -1 15 5 -5 7 1 9 15 5 16 -4 19 -2 13 8 -5 9 -4 11 3 6 15 -9
152 55 145 68 -3 5 -1 6 5 2 13 -8 56 17 46 26 -3 3 3 5 13 4 10 0 17 4 16 11
-2 7 4 10 12 7 8 -4 15 -1 15 6 0 6 5 8 10 5 6 -3 13 1 16 9 3 9 9 14 13 11 4
-2 24 11 44 30 19 18 38 31 41 28 3 -3 8 2 12 11 3 9 10 16 15 16 9 0 26 14
111 89 21 18 35 38 31 44 -3 6 -1 7 5 3 13 -8 35 28 24 39 -4 5 -2 5 4 2 6 -3
24 7 39 23 16 17 25 30 21 30 -5 0 2 9 15 20 13 10 21 19 17 20 -4 0 4 12 17
26 14 15 22 31 18 37 -3 6 -1 7 5 3 14 -8 35 30 26 47 -4 6 -3 9 1 4 10 -9 76
93 69 105 -3 4 -1 8 4 8 9 0 49 81 44 89 -2 2 0 7 6 10 15 10 64 160 56 172
-4 7 -3 9 3 6 12 -8 48 136 38 153 -5 8 -4 11 2 7 12 -8 28 107 17 125 -4 6
-3 8 4 4 7 -4 11 38 12 136 1 151 -16 328 -32 328 -5 0 -6 4 -3 10 7 11 -15
102 -51 212 l-25 76 61 121 c33 67 58 121 54 121 -3 0 2 7 10 16 9 8 16 23 16
32 1 29 36 -25 77 -118 21 -47 41 -88 46 -91 5 -3 8 -9 7 -13 -4 -15 12 -66
19 -61 5 2 6 -7 3 -22 -4 -19 -2 -24 8 -18 8 5 11 4 6 -3 -10 -16 4 -63 17
-55 6 3 7 1 3 -5 -10 -17 4 -83 17 -75 6 3 7 1 3 -5 -4 -7 -2 -38 3 -69 28
-155 37 -286 29 -428 -12 -218 -46 -393 -113 -573 -37 -97 -114 -258 -147
-304 -11 -16 -17 -28 -14 -28 3 0 -1 -8 -8 -17 -8 -10 -48 -63 -89 -118 -92
-124 -292 -319 -415 -405 -222 -156 -455 -254 -737 -311 -94 -19 -145 -23
-347 -24 -130 0 -235 3 -232 7 3 4 -8 8 -24 8 -36 0 -226 42 -307 69 -129 41
-233 88 -382 172 -88 50 -262 187 -359 284 -153 152 -265 308 -359 500 -50
103 -121 292 -131 353 -3 15 -7 34 -10 43 -2 9 -12 54 -20 100 -18 92 -34 500
-21 492 5 -3 7 20 5 50 -1 30 -1 53 1 51 5 -5 51 206 54 248 1 14 5 24 10 21
6 -3 8 5 7 32 0 3 7 19 16 36 8 17 13 37 10 45 -3 8 -2 13 2 10 7 -4 32 47 37
74 1 3 18 38 38 78 21 40 35 77 32 83 -4 5 -1 8 7 7 7 -2 12 3 10 10 -1 6 3
12 9 12 6 0 8 7 5 16 -3 8 -2 13 2 10 4 -2 21 16 37 42 16 26 42 64 58 84 16
22 25 43 21 50 -4 7 -4 10 1 6 4 -4 24 11 44 35 20 23 55 62 78 88 24 25 41
49 38 52 -3 4 -2 5 2 2 9 -7 44 26 37 37 -3 4 0 7 8 6 7 -2 12 3 10 10 -1 8 2
11 7 7 6 -3 16 3 23 15 7 11 18 20 25 20 6 0 13 4 15 8 2 4 31 29 65 55 34 26
70 55 79 65 10 9 19 16 21 14 8 -6 72 46 65 53 -4 5 -1 5 6 1 7 -4 25 0 40 10
15 10 46 28 69 40 24 11 39 25 35 29 -4 5 -2 5 5 1 16 -9 64 14 56 27 -3 6 -1
7 5 3 7 -4 33 2 58 13 26 12 53 21 61 21 8 0 12 4 9 9 -3 5 0 9 7 8 39 -1 58
4 51 15 -4 6 -3 8 3 5 6 -4 25 -2 44 4 45 13 59 16 161 36 48 9 85 20 83 23
-2 3 18 5 44 3 26 -2 57 0 69 4 21 8 277 7 367 -1z m-10 -430 c-1 -12 3 -24 9
-28 8 -6 8 -8 -1 -8 -6 0 -10 -11 -8 -27 4 -32 12 -268 21 -583 3 -118 7 -233
9 -255 2 -22 4 -104 5 -182 1 -100 5 -143 13 -143 7 0 5 -5 -3 -10 -8 -5 -11
-10 -5 -10 5 0 -15 -17 -45 -37 -30 -20 -56 -40 -58 -45 -2 -4 -8 -8 -13 -8
-19 0 -199 -127 -191 -135 4 -4 2 -5 -4 -2 -6 4 -25 -4 -42 -16 -16 -12 -38
-27 -49 -34 -43 -29 -478 -320 -726 -485 -148 -99 -270 -178 -272 -176 -4 4
-19 443 -16 485 1 17 -3 34 -9 38 -6 3 -7 11 -4 17 6 10 6 176 -1 278 -2 30
-6 141 -10 245 -4 105 -8 192 -8 195 -1 3 8 15 21 28 12 12 22 19 22 15 0 -5
7 1 16 12 8 11 18 20 22 20 4 0 6 5 4 10 -2 6 0 7 3 3 9 -9 52 13 80 39 11 11
25 21 30 24 6 2 9 7 8 10 -1 4 5 6 15 5 9 0 16 4 15 11 -2 7 3 10 10 7 7 -2
25 6 40 20 14 13 28 22 30 20 2 -2 16 7 31 21 14 13 30 26 34 27 4 2 6 7 4 11
-1 5 3 5 9 1 6 -3 14 -3 18 2 3 5 20 17 36 26 17 10 29 22 27 28 -1 7 2 9 7 6
10 -6 170 96 183 117 4 7 8 8 8 4 0 -8 70 40 82 58 4 5 8 7 8 2 0 -4 11 0 25
9 14 9 23 19 20 23 -2 4 1 8 8 8 14 0 148 85 171 109 9 8 16 13 16 10 0 -4 18
6 40 20 22 15 37 31 33 37 -3 5 -1 7 4 4 13 -8 165 92 158 103 -3 4 3 7 13 6
9 0 16 4 15 11 -2 7 4 10 12 7 8 -4 15 -1 15 5 0 6 6 10 13 9 6 -2 11 4 9 12
-2 8 0 12 4 8 7 -8 64 21 64 32 0 4 6 7 13 7 7 0 13 -10 12 -21z m1545 -101
c0 -3 -88 -180 -194 -394 -107 -214 -192 -392 -189 -395 4 -3 2 -6 -3 -6 -5 0
-41 -63 -79 -140 l-69 -140 -51 143 c-28 78 -62 174 -75 212 -14 39 -29 73
-35 77 -5 4 -7 8 -3 8 4 0 0 20 -8 43 -14 42 -20 47 -167 128 -84 45 -185 100
-224 122 -66 35 -95 55 -59 41 8 -3 17 -1 20 5 4 6 14 7 23 4 10 -4 14 -2 10
4 -5 7 0 9 13 6 11 -3 20 -1 20 3 0 5 17 10 37 11 20 1 39 5 42 10 3 4 12 8
19 9 6 1 21 2 33 3 11 0 18 5 15 10 -3 4 6 6 21 3 16 -3 24 -1 20 5 -4 6 3 8
18 5 15 -2 25 0 25 7 0 7 4 9 10 6 8 -5 96 15 140 32 8 3 20 7 25 7 36 5 124
30 121 35 -2 3 6 7 17 7 30 3 55 9 63 16 3 4 12 4 19 2 7 -3 16 -1 19 5 4 6
13 8 20 5 8 -3 17 0 21 5 3 6 11 9 16 5 5 -3 17 0 26 8 9 7 18 11 20 10 9 -9
82 11 76 20 -3 7 -1 8 6 4 15 -9 73 3 66 14 -3 4 3 6 13 3 10 -2 31 1 47 8 17
6 41 13 54 15 13 1 26 5 29 8 7 7 32 8 32 1z m-1444 -1224 c-7 -11 53 -33 67
-24 6 3 7 1 3 -5 -6 -11 6 -16 27 -13 4 0 7 -4 7 -10 0 -6 9 -9 20 -6 11 3 18
1 14 -4 -5 -8 9 -13 29 -10 4 0 7 -4 7 -10 0 -6 6 -9 12 -7 7 3 19 -2 27 -9 7
-8 21 -11 29 -8 9 3 13 3 9 -1 -10 -10 73 -46 90 -39 8 2 12 1 9 -4 -8 -12 22
-23 37 -14 7 3 9 2 4 -2 -9 -11 51 -37 66 -28 6 3 7 1 3 -5 -4 -7 4 -14 21
-18 15 -4 33 -11 40 -16 7 -5 18 -6 24 -2 8 5 9 3 4 -6 -6 -10 -3 -12 13 -8
12 4 20 3 17 -2 -7 -11 24 -22 37 -13 7 3 8 1 4 -5 -6 -11 5 -15 30 -11 4 0
10 -4 13 -9 9 -15 82 -43 94 -35 5 3 7 2 4 -4 -6 -9 59 -39 76 -35 4 1 7 -3 7
-8 0 -5 3 -9 8 -8 4 0 25 -7 47 -17 22 -10 42 -19 45 -20 3 -1 25 -11 50 -22
25 -11 64 -29 88 -39 23 -10 42 -20 42 -23 -1 -7 -1378 -925 -1394 -929 -11
-2 -99 35 -566 238 -91 39 -255 110 -365 158 -110 47 -202 87 -205 90 -3 2 4
10 15 17 11 8 25 18 30 22 6 4 22 14 36 21 15 8 37 24 50 36 13 12 29 24 34
27 6 2 9 7 8 11 -2 5 0 7 5 7 17 -3 30 2 50 21 12 12 22 18 22 14 0 -3 7 -1
15 6 8 7 12 17 8 23 -3 6 -1 7 5 3 16 -9 143 74 135 88 -3 6 -3 8 2 4 11 -11
47 11 39 24 -4 7 -3 8 5 4 6 -4 30 6 54 22 107 73 122 85 119 94 -1 5 2 7 8 3
15 -9 122 64 114 77 -4 7 -2 8 5 4 16 -10 154 82 145 96 -4 6 -2 8 4 4 6 -3
26 4 45 16 174 115 214 144 209 152 -3 5 0 6 5 3 6 -4 29 7 52 23 22 17 44 30
48 31 5 0 37 22 73 49 70 52 74 55 66 41z m1254 -2781 c0 -316 -2 -575 -4
-577 -8 -8 -179 -34 -263 -40 -160 -11 -270 24 -361 115 -26 25 -49 46 -52 45
-3 -1 -6 6 -7 15 -1 9 -10 42 -21 72 -17 48 -36 146 -33 175 9 97 26 166 57
228 20 40 43 76 50 80 8 4 25 19 39 33 13 13 27 24 30 25 15 0 34 12 30 19 -3
5 5 6 17 2 14 -3 19 -1 14 6 -5 8 -2 10 8 6 9 -3 24 -3 34 1 26 10 152 11 152
1 0 -5 3 -7 6 -3 4 3 22 0 40 -8 l34 -14 0 175 c0 116 4 174 11 174 5 0 8 3 6
8 -3 4 9 8 26 8 18 1 46 4 62 7 17 3 47 8 68 10 21 3 41 8 44 11 4 3 8 4 10 2
2 -2 3 -261 3 -576z m-3267 426 c-3 -20 -1 -26 8 -21 9 6 9 4 3 -6 -5 -8 -9
-45 -10 -84 l-1 -70 -232 -3 -231 -2 0 -95 0 -95 178 1 c97 1 189 1 205 0 l27
-1 0 -100 0 -100 -207 0 -208 0 3 -124 3 -124 250 2 249 1 0 -102 0 -103 -372
0 -373 0 0 170 c0 107 -4 170 -10 170 -6 0 -6 3 0 8 15 10 15 392 0 392 -7 0
-7 3 0 8 6 4 11 34 11 67 0 33 -5 63 -11 67 -7 5 -7 8 0 8 7 0 10 27 10 68 -1
37 1 74 2 82 4 13 52 15 357 15 l353 0 -4 -29z m1421 -207 c-2 -4 11 -7 29 -8
32 -1 88 -8 97 -11 3 -1 8 -2 13 -1 4 0 7 -4 7 -9 0 -5 7 -10 15 -10 19 0 19
-22 0 -85 -9 -27 -17 -60 -20 -74 -6 -33 -9 -34 -51 -21 -44 15 -124 18 -177
7 -48 -10 -99 -61 -115 -115 -17 -55 -15 -150 4 -206 24 -71 74 -100 176 -104
44 -1 77 1 74 6 -2 4 10 7 27 6 17 -1 36 1 42 4 30 19 44 9 47 -32 1 -14 6
-26 10 -26 4 0 5 -6 2 -13 -3 -8 -1 -32 4 -55 12 -52 6 -58 -89 -78 -138 -30
-302 -6 -393 56 -48 34 -117 131 -132 185 -29 112 -25 242 12 328 14 34 27 70
27 79 1 9 4 15 8 12 11 -6 50 52 41 61 -4 5 -1 5 7 0 7 -4 16 -3 20 2 3 6 27
24 53 40 26 17 44 33 41 37 -4 4 0 4 8 1 9 -3 29 0 45 6 16 7 41 12 56 13 14
1 29 3 31 6 8 7 86 6 81 -1z m681 -8 c19 -1 65 -7 75 -11 3 -1 8 -2 13 -1 4 0
7 -4 7 -10 0 -6 7 -8 16 -5 8 3 12 2 9 -4 -3 -5 5 -12 19 -16 20 -5 155 -134
140 -134 -3 0 2 -13 10 -28 8 -15 17 -44 21 -65 4 -20 10 -37 14 -37 10 0 3
-181 -9 -230 -33 -134 -132 -237 -265 -276 -167 -48 -355 26 -442 173 -52 90
-73 262 -43 363 8 25 13 48 12 53 -1 4 3 7 9 7 5 0 7 5 4 10 -3 6 -2 10 3 10
9 0 25 37 23 52 -1 5 2 7 7 5 4 -1 9 3 11 8 2 6 12 16 23 23 10 7 15 18 12 24
-4 6 -3 8 2 5 6 -3 32 10 59 28 28 19 58 34 68 35 10 0 16 3 14 8 -5 7 6 9 78
12 19 1 33 6 30 10 -3 5 9 4 27 0 18 -5 42 -9 53 -9z m-1512 -4 c-3 -5 3 -8
13 -7 11 1 22 2 27 1 4 0 9 0 10 2 2 1 11 -4 20 -12 10 -7 17 -10 17 -6 0 15
84 -61 108 -99 15 -23 29 -43 32 -46 3 -3 7 -21 8 -40 2 -19 7 -36 10 -37 4
-2 5 -25 4 -53 -2 -27 0 -50 5 -50 4 0 6 -49 3 -110 -3 -61 -1 -110 3 -110 5
0 5 -5 2 -11 -4 -6 -7 -60 -8 -120 l0 -109 -117 0 -116 0 1 70 c1 43 -3 70 -9
70 -6 0 -5 4 2 9 8 4 14 12 14 16 0 4 -6 12 -14 16 -10 7 -10 9 0 9 14 0 12
61 -3 72 -7 5 -6 8 1 8 7 0 10 34 9 98 -3 137 -12 188 -40 216 -24 24 -83 40
-120 32 -11 -3 -30 -5 -42 -5 l-23 -1 0 -305 0 -305 -115 0 -115 0 -2 375 c-2
206 -1 380 0 385 2 6 10 10 18 10 9 0 13 4 10 9 -3 4 6 6 19 3 14 -2 25 0 25
6 0 5 14 8 31 6 16 -2 28 0 25 5 -3 4 7 7 22 5 16 -2 40 0 55 4 37 10 236 9
230 -1z m3289 0 c20 -3 46 -10 57 -17 12 -6 27 -8 33 -4 6 4 8 3 5 -3 -3 -5
10 -17 29 -28 19 -10 34 -22 34 -27 0 -5 5 -6 12 -2 6 4 8 3 5 -3 -4 -6 2 -18
12 -27 11 -10 25 -31 31 -47 7 -16 16 -29 21 -29 5 0 8 -3 8 -7 -4 -22 2 -54
9 -50 4 3 8 -7 8 -21 5 -83 6 -132 5 -174 l-1 -48 -255 -2 -255 -3 18 -35 c10
-19 23 -34 31 -32 7 1 10 -2 6 -7 -8 -13 38 -43 70 -45 14 0 25 -4 25 -7 0 -8
144 -3 205 6 22 3 51 11 65 18 23 12 26 11 26 -7 1 -65 5 -97 12 -93 4 3 7
-15 7 -40 0 -44 -1 -46 -38 -59 -122 -42 -340 -42 -432 0 -51 23 -142 85 -141
96 1 9 -31 50 -35 45 -3 -2 -5 4 -6 13 -1 9 -9 37 -19 62 -15 35 -19 72 -19
170 0 115 2 130 27 182 31 67 88 147 105 148 6 0 19 10 27 22 9 12 16 19 16
15 0 -4 15 0 33 10 34 18 38 20 63 22 8 0 13 5 10 9 -5 9 121 8 186 -1z"/>
<path d="M3025 4951 l-580 -387 -3 -128 c-2 -93 0 -126 9 -121 8 6 8 2 0 -12
-6 -11 -8 -23 -5 -25 3 -3 5 -61 5 -129 0 -86 3 -126 12 -131 9 -5 9 -8 0 -8
-6 0 -10 -8 -8 -17 4 -17 14 -313 15 -400 0 -47 7 -52 36 -25 10 10 27 21 37
25 10 4 15 11 12 17 -3 5 0 7 7 5 8 -3 23 4 35 15 12 11 25 20 28 20 16 0 84
54 78 63 -3 6 -1 7 6 3 10 -7 72 29 79 46 2 4 9 8 16 8 7 0 22 9 34 20 12 11
24 20 27 20 11 -1 85 53 85 62 0 5 4 7 8 4 5 -3 19 4 30 15 12 10 23 18 24 17
8 -5 57 35 52 43 -3 5 2 6 10 3 9 -3 16 -1 16 5 0 6 6 10 13 8 6 -1 11 4 10
10 -2 7 0 12 5 12 17 -3 30 2 50 21 12 11 25 21 29 22 11 1 127 80 134 91 3 5
9 8 13 8 11 -2 76 45 70 51 -3 3 1 5 8 5 20 -3 148 86 141 97 -4 6 -3 8 2 4
11 -11 47 11 39 24 -4 7 -2 8 5 4 6 -4 19 -2 28 5 13 11 14 29 9 109 -6 92 -8
142 -21 610 -7 224 -11 289 -16 294 -2 2 -265 -170 -584 -383z m467 -211 l-3
-121 -30 -18 c-16 -10 -27 -20 -24 -23 3 -2 -1 -5 -7 -5 -7 0 -48 -24 -90 -52
l-78 -52 0 -112 -1 -112 -117 -77 c-64 -42 -117 -76 -119 -75 -1 2 -5 48 -9
102 -3 55 -7 101 -8 102 0 1 -88 -57 -195 -128 -107 -71 -196 -127 -199 -125
-8 8 -11 67 -13 201 0 71 -5 137 -10 147 -7 14 -6 18 5 18 8 0 21 8 28 18 7 9
20 18 28 20 8 2 17 7 20 10 3 4 44 33 92 65 48 32 94 65 103 73 8 9 15 13 15
9 0 -3 11 2 25 11 14 9 22 21 18 27 -3 6 -1 7 5 3 14 -8 64 23 56 35 -3 5 2 6
10 3 13 -5 16 -28 16 -136 0 -95 3 -127 12 -122 7 5 8 3 2 -7 -8 -13 -9 -87
-1 -95 3 -3 107 63 117 75 3 3 19 14 35 23 17 10 29 22 27 28 -1 7 2 9 8 5 6
-4 18 -1 26 6 13 10 14 30 8 121 -6 94 -4 108 10 114 9 3 13 10 10 15 -3 5 1
6 9 3 8 -3 28 8 45 24 17 16 33 28 35 26 2 -2 16 7 30 20 14 13 28 22 30 20 2
-2 16 7 30 20 15 14 27 22 27 19 0 -4 5 -2 12 5 7 7 12 12 13 12 0 0 -1 -54
-3 -120z"/>
<path d="M4685 1429 c-38 -11 -79 -53 -94 -98 -12 -38 -15 -185 -3 -178 4 3 7
-8 8 -25 1 -33 27 -72 68 -102 22 -17 42 -21 104 -21 l77 0 3 202 2 202 -52
16 c-57 17 -69 17 -113 4z"/>
<path d="M3793 1421 c-52 -24 -81 -77 -90 -161 -6 -66 4 -153 17 -145 4 3 6
-4 3 -15 -3 -12 0 -20 6 -20 7 0 10 -4 7 -9 -9 -13 54 -63 71 -57 8 3 11 2 8
-3 -7 -13 75 -11 100 1 31 17 57 47 49 60 -4 7 -3 8 4 4 11 -6 16 6 13 27 0 4
4 7 10 7 7 0 9 10 7 25 -3 13 -1 22 3 19 13 -8 11 100 -3 154 -27 109 -112
155 -205 113z"/>
<path d="M5523 1420 c-33 -20 -50 -44 -63 -90 l-8 -28 144 0 c119 1 144 3 144
15 0 26 -32 83 -58 103 -33 27 -115 27 -159 0z"/>
</g>
</svg>
